<svg preserveAspectRatio="none" overflow="visible" style="display: block;" width="26.5551" height="12.8282" viewBox="0 0 26.5551 12.8282" fill="none" xmlns="http://www.w3.org/2000/svg">
<path id="Ellipse 650" d="M15.9896 8.67482C16.0012 8.78102 16.0132 8.88718 16.0252 8.99334C15.9129 8.95777 15.7993 8.92162 15.6892 8.88449C15.808 9.24409 15.932 9.60352 16.0593 9.96141C16.2467 9.87649 16.4295 9.79142 16.6143 9.70393C16.6012 9.60012 16.5877 9.49562 16.5749 9.39176C16.7544 9.51099 16.7768 9.90229 16.9701 9.80845C16.956 9.70477 16.9411 9.6012 16.9269 9.49679C17.062 9.37344 17.1676 9.36781 17.3274 9.40927C17.3113 9.3044 17.2956 9.19947 17.2798 9.09455C17.4744 9.23637 17.5725 8.91772 17.7688 9.06976C17.7249 9.2721 17.6782 9.4723 17.6295 9.67609C17.8144 9.64263 17.9687 9.5313 18.1253 9.39293C18.1999 9.32658 18.0946 9.04869 18.0723 8.91887C18.2419 8.96421 18.1763 9.29882 18.3756 9.17222C18.3547 9.06969 18.3339 8.96717 18.313 8.86464C18.4051 8.78315 18.495 8.70124 18.5827 8.61896C18.6571 8.76513 18.735 8.91042 18.8124 9.05487C18.8804 8.92534 18.9457 8.79567 19.0078 8.66533C18.9991 9.1061 19.0319 9.10442 19.2862 9.24317C19.2715 8.99579 19.4285 8.99609 19.458 8.83876C19.4874 8.68153 19.368 8.46695 19.4672 8.35851C19.5266 8.38991 19.5938 8.42722 19.6566 8.46019C19.6109 8.30658 19.565 8.15306 19.5193 8.00023C19.6355 8.07343 19.7483 8.14606 19.8693 8.21603C19.8934 8.37781 19.9159 8.53922 19.9383 8.70139C20.0448 8.72044 20.1511 8.73784 20.2565 8.75525C20.235 8.64916 20.2132 8.54314 20.1915 8.4371C20.3098 8.50624 20.4363 8.57166 20.5592 8.63713C20.5669 8.57629 20.5741 8.51551 20.5812 8.4547C20.5432 8.35484 20.5053 8.25496 20.4673 8.15506C20.7585 8.30911 21.034 8.69698 21.3511 8.81966C21.3978 8.69245 21.4392 8.58068 21.484 8.45014C21.7727 8.69429 21.8113 8.27041 21.9684 8.26978C22.2376 8.26741 22.3394 8.50344 22.61 8.38771C22.653 8.36841 22.8801 8.56368 22.9665 8.55932C23.2244 8.5438 23.3122 8.26442 23.5448 8.19044C23.6312 8.26661 23.7156 8.33875 23.8073 8.41691C23.7605 8.20701 23.8955 8.33226 23.9711 8.2679C24.0763 8.17545 23.8643 7.93171 24.029 7.87061C24.119 7.93105 24.2165 7.99622 24.3099 8.0569C24.4152 7.85357 24.0676 7.78869 24.2901 7.61028C24.2013 7.47087 24.1059 7.33867 24.0022 7.21517C24.1345 7.2274 24.2712 7.22625 24.4093 7.21696C24.3128 7.16608 24.2151 7.11764 24.1178 7.06852C24.1172 6.97747 24.1079 6.88668 24.0896 6.79923C24.2146 6.78607 24.3418 6.75778 24.4677 6.72438C24.1892 6.58715 24.1055 6.78098 23.8709 6.69581C23.6406 6.61133 23.4874 6.48155 23.2051 6.44139C23.1784 6.38055 23.1438 6.3353 23.1047 6.29705C23.3724 6.30767 23.6398 6.32429 23.9061 6.34585C23.8121 6.41128 23.7125 6.46073 23.6122 6.49668C23.8494 6.47493 24.0899 6.40833 24.3181 6.29276C24.518 6.42355 24.6984 6.46192 24.957 6.36149C25.3204 6.52561 25.7268 6.44021 26.0961 6.28396C26.2263 6.35441 26.351 6.42845 26.4784 6.51717C26.3705 6.8605 26.5199 7.19285 26.4151 7.49379C26.3063 7.78734 26.0743 7.79215 25.9697 8.04925C26.4297 8.39675 26.0992 8.42059 25.9234 8.74633C25.6363 9.25692 25.7709 9.67786 25.129 9.69222C25.1816 9.79504 25.2195 9.89207 25.2649 9.9957C25.0215 10.119 24.8143 10.2743 24.5855 10.3468C24.2213 10.4623 24.1726 10.4405 24.0897 10.8792C23.4953 11.1065 23.0618 11.3731 22.6436 11.7847C22.6251 11.7909 22.6066 11.797 22.588 11.8031C22.368 11.3623 22.1811 11.5145 21.8935 11.3893C21.8877 11.5619 21.8734 11.7364 21.8684 11.9085C21.8109 11.9066 21.7777 11.8121 21.7135 11.8208C21.1176 11.9015 20.5617 12.2408 19.9842 12.2017C19.7298 12.1832 19.5889 12.0194 19.3399 12.0628C19.1977 12.0875 19.0031 12.168 18.8399 12.1881C18.8634 12.0231 18.7218 11.9369 18.7008 11.9051C18.6211 11.7879 18.666 11.6965 18.6192 11.5848C18.5349 11.6442 18.5006 11.7741 18.5056 11.9414C18.4151 11.9581 18.3246 11.9885 18.2353 12.0003C18.2151 11.8961 18.1944 11.7913 18.1746 11.687C18.1451 11.6936 18.1159 11.7001 18.0863 11.7066C18.0416 11.8804 17.9951 12.0535 17.947 12.2272C17.9646 12.0599 17.9813 11.8926 17.9976 11.7259C17.8808 11.752 17.7597 11.7786 17.6442 11.8028C17.6587 11.9042 17.6733 12.0063 17.6878 12.1077C17.5968 12.18 17.5042 12.2519 17.4108 12.3233C17.139 12.2201 16.8784 12.1098 16.6142 12.0025C16.5702 12.0457 16.5458 12.1956 16.5125 12.2404C16.3002 12.5221 16.1478 12.4333 15.8859 12.4164C15.9356 12.3013 15.9836 12.1868 16.0318 12.0722C15.777 12.0764 15.6379 12.317 15.6428 12.7709C15.4692 12.7159 15.3473 12.7295 15.1866 12.8282C15.2003 12.6118 15.213 12.3948 15.2256 12.1784C14.9675 12.3702 14.7108 12.5593 14.4439 12.7453C14.4335 12.5868 14.4233 12.4283 14.4131 12.2698C14.3563 12.2683 14.2991 12.2726 14.244 12.267C14.168 12.0204 14.2351 11.8403 13.9919 11.9998C13.8715 12.0782 13.8536 12.5607 13.8976 12.7859C13.7337 12.8918 13.6839 12.5689 13.563 12.5207C13.4307 12.4673 13.3095 12.4825 13.1895 12.5245C13.0599 12.5698 12.9327 12.6462 12.7975 12.7005C12.7963 12.5965 12.7938 12.4875 12.7922 12.3814C12.7029 12.4395 12.6147 12.4974 12.5231 12.554C12.5231 12.2869 12.5237 12.0191 12.5232 11.7534C12.3195 11.7181 12.3576 11.8453 12.3305 12.1374C12.3037 12.4296 12.1437 12.6534 12.0248 12.7113C11.875 12.7846 11.642 12.6223 11.5868 12.6208C11.3483 12.6162 11.1983 12.4286 11.0355 12.4199C10.788 12.4063 10.7176 12.467 10.4686 12.4128C10.2952 12.3738 10.0188 12.6148 9.8205 12.5519C9.65016 12.4979 9.62608 12.1652 9.42458 12.3802C9.39303 12.2149 9.36207 12.0561 9.33213 11.8937C9.01082 11.9262 8.68952 11.9533 8.36022 11.9739C8.37406 11.8694 8.38795 11.7649 8.40199 11.6596C8.3418 11.6541 8.28139 11.6483 8.2216 11.6425C8.2047 11.745 8.18809 11.8483 8.17122 11.9508C8.07459 11.9972 7.97278 12.043 7.87294 12.0886C7.86861 11.8192 7.86559 11.5507 7.86461 11.2815C7.82311 11.4375 7.78112 11.5926 7.73959 11.7486C7.5173 11.6951 7.09934 12.2971 7.19003 11.6786C7.26969 11.5821 7.35367 11.4863 7.42926 11.3885C7.3002 11.5276 7.12071 11.4683 7.00707 11.5082C6.44124 11.7134 6.14476 11.7596 5.61012 11.5599C5.34148 11.4593 4.77354 11.7932 4.76462 11.1795C4.87219 11.0472 4.98787 10.9097 5.09644 10.774C4.98744 10.8553 4.87723 10.9364 4.76595 11.0165C4.67175 10.8784 4.58178 10.7399 4.49662 10.602C4.40793 10.7974 4.31896 10.9935 4.2294 11.1886C3.84117 11.1258 3.70222 10.7629 3.48512 10.4259C3.2793 10.4508 3.07634 10.4745 2.85721 10.4835C2.873 10.3722 2.88971 10.2611 2.90862 10.1502C2.79326 10.2125 2.6773 10.2728 2.55462 10.3287C2.51117 10.1249 2.48239 9.92651 2.45084 9.72179C2.39327 9.81186 2.33451 9.90199 2.27805 9.99193C2.01255 9.8141 1.90306 9.51932 1.59666 9.32614C1.44529 9.23021 1.15415 9.30285 0.986489 9.16187C0.902444 9.09027 0.977439 8.96135 0.869477 8.84528C0.59759 8.56081 0.199849 8.13475 0.369482 7.6327C0.514869 7.63304 0.659033 7.63097 0.801014 7.61957C0.569939 7.39656 0.352434 7.11003 0.182189 6.76701C0.281153 6.71253 0.381991 6.6613 0.483086 6.6136C0.466938 6.50531 0.45668 6.39472 0.451615 6.28396C0.450982 6.27013 0.450428 6.25631 0.449952 6.2425C-0.21007 6.14906 -0.115235 5.30438 0.546722 5.3175C0.534491 4.7222 0.840686 4.33127 0.717106 3.78991C1.36849 3.76286 1.12832 3.35233 1.50396 3.10246C1.71257 2.97284 1.85803 3.17232 2.06219 2.95095C2.30605 2.69313 2.65452 2.83656 2.61956 2.31779C2.74881 2.33019 2.94534 2.39903 3.03277 2.35085C3.11966 2.30235 3.00863 2.19055 3.15122 2.2254C3.32134 2.27191 3.41786 2.46247 3.51753 2.65212C3.53757 2.38714 3.5713 2.11549 3.60484 1.84884C3.8175 1.93205 3.89801 1.81049 4.04267 2.12806C4.09801 2.10354 4.1542 2.07914 4.21044 2.05522C4.33035 2.22924 4.44895 2.40406 4.56614 2.58048C4.56316 2.46215 4.56214 2.34405 4.561 2.22545C4.38604 1.96999 4.15939 1.80126 4.23341 1.49442C4.43617 1.62048 4.35314 1.41308 4.50987 1.3454C4.70258 1.26194 5.03155 1.40035 5.24079 1.35263C5.54579 1.28267 5.88132 1.15157 6.1341 0.990286C6.24125 0.921288 6.25075 0.917345 6.3525 0.885666C6.45806 1.04056 6.56855 1.20507 6.67469 1.35294C6.71233 2.14295 6.80852 1.5196 6.92989 1.38471C7.14627 1.14554 7.28507 1.27397 7.19255 0.739768C7.29053 0.821171 7.39024 0.891425 7.4879 0.969281C7.62748 0.816004 7.76107 0.666432 7.90385 0.516041C7.94203 0.615424 7.98027 0.714076 8.01842 0.813514C8.11183 0.729731 8.20179 0.647248 8.29512 0.565575C8.29883 0.730398 8.30136 0.897683 8.3065 1.06011C8.57815 0.938218 8.75558 0.409146 9.04629 0.380814C9.15566 0.370292 9.20314 0.609109 9.29223 0.618139C9.39942 0.629392 9.41947 0.420447 9.51698 0.422631C9.84059 0.428672 10.1441 0.513491 10.4602 0.519373C10.631 0.522119 10.7497 0.580722 10.9435 0.556394C11.1007 0.536295 11.2566 0.0847647 11.4659 0.137239C11.4545 0.296859 11.4373 0.467083 11.4239 0.630531C11.5681 0.59899 11.7134 0.566231 11.8596 0.535943C11.8817 0.423702 11.9041 0.311483 11.9268 0.199286C11.9372 0.358511 11.948 0.517724 11.9587 0.676941C12.1267 0.672764 12.1406 0.624363 12.1204 0.32845C12.261 0.352313 12.3863 0.12361 12.5001 0.0816793C12.5867 0.0505891 12.6361 0.17932 12.6834 0.174177C12.8765 0.152929 13.0224 0.0924628 13.1895 0.0484056C13.2895 0.0220797 13.3966 0.00171804 13.5248 5.96046e-06C13.5746 -0.000916481 13.9964 0.106223 14.0682 0.243625C14.1399 0.380335 14.098 0.586191 14.209 0.695072C14.2669 0.538062 14.3368 0.369172 14.3957 0.211765C14.6183 0.161849 14.6981 0.387267 14.9467 0.353779C15.2195 0.318388 15.5291 0.0631387 15.8753 0.11166C15.9437 0.121312 15.9834 0.448812 16.212 0.418725C16.7348 0.347831 17.542 0.31155 18.0811 0.355916C18.2683 0.369419 18.5335 0.600809 18.5879 0.598763C18.9903 0.582787 19.1 0.543423 19.3838 0.829054C19.3592 0.928506 19.3433 1.03218 19.3218 1.13309C19.428 1.1691 19.5323 1.20708 19.635 1.24932C19.6669 1.15165 19.6981 1.05532 19.7359 0.96136C20.3201 1.02319 20.7049 1.45094 21.3863 0.926199C21.5063 0.975885 21.5628 1.03962 21.6666 1.13113C21.9395 1.37172 22.2024 1.3644 22.495 1.71742C22.5507 1.7807 22.951 1.95698 23.0675 2.08964C23.1599 2.19462 22.9939 2.5411 23.1929 2.58111C23.2581 2.51196 23.3233 2.43032 23.3873 2.34971C23.5337 2.48557 23.7615 2.33327 23.9408 2.42777C24.0099 2.46511 23.9194 2.60461 24.0251 2.67127C24.132 2.73814 24.3336 2.75247 24.4694 2.85083C24.5469 2.90743 24.3854 3.13146 24.4669 3.19267C24.5469 3.25367 24.7294 3.11005 24.8619 3.17279C25.3686 3.38229 26.1102 4.04166 25.8662 4.85347C26.5176 5.30929 26.6537 5.87257 26.4946 6.08858C26.3348 6.32662 25.9065 6.30146 25.3056 6.24678C25.3131 6.09298 25.3077 5.93742 25.2891 5.78605C25.1199 5.96408 24.9324 6.11601 24.736 6.23439C24.3282 6.13001 23.9431 6.146 23.6325 6.06849C23.5447 6.05133 23.6378 5.97872 23.522 5.97972C23.4069 5.98395 23.1659 6.07472 23.0896 6.05186C23.0797 6.03569 23.0805 6.01291 23.0721 5.9929C23.1678 5.93872 23.2611 5.8833 23.3537 5.82524C23.23 5.78919 23.1011 5.76891 22.9747 5.76094C23.1712 5.61865 23.2977 5.48419 23.2837 5.3511C23.0602 5.50446 22.8384 5.66509 22.6286 5.82867C22.5431 5.79341 22.6855 5.62118 22.5848 5.57141C22.5061 5.53315 22.2846 5.60908 22.184 5.58923C22.0075 5.55289 21.9601 5.37163 21.6479 5.78155C21.6528 5.635 21.6563 5.49028 21.6465 5.34308C21.6933 5.24345 21.7399 5.14297 21.7861 5.04308C21.7305 5.02483 21.6778 5.00897 21.6227 4.99342C21.5463 5.17059 21.4684 5.34709 21.39 5.52331C21.368 5.46362 21.3462 5.40382 21.322 5.3384C21.1059 5.2624 20.8919 4.99888 20.7861 4.69392C20.7414 4.55829 20.8284 4.30786 20.7355 4.26878C20.6474 4.45842 20.5535 4.64362 20.4653 4.83176C20.5758 4.8618 20.6871 4.88623 20.7907 4.92211C20.7417 5.13408 20.4298 5.33765 20.3703 5.32678C20.1889 5.29156 20.2857 5.07819 20.2193 4.84988C20.2087 4.8079 20.1092 4.59024 20.0807 4.57809C19.9569 4.52683 19.8932 4.64426 19.8619 4.3963C19.6536 4.48915 19.4505 4.60805 19.2474 4.71135C19.3805 4.61802 19.4239 4.29684 19.53 4.1912C19.6372 4.08664 19.718 4.26937 19.8408 4.07484C19.7748 4.01078 19.7058 3.93281 19.6354 3.86359C19.537 4.04648 19.4389 4.23039 19.344 4.41537C19.3038 4.3574 19.2625 4.30017 19.2189 4.24565C19.0996 4.35353 18.9622 4.415 18.9872 4.66426C18.9707 4.67896 18.9543 4.69517 18.9376 4.71212C18.8563 4.43911 18.6914 4.8143 18.5435 4.91221C18.4243 4.79013 18.3046 4.66449 18.1833 4.54761C18.3421 4.25837 18.3614 4.54753 18.4621 4.5338C18.7409 4.49846 18.8883 4.21426 19.0111 3.73625C18.6904 3.98799 18.5651 4.32716 18.2721 4.15276C18.3562 4.03939 18.4415 3.92651 18.5279 3.81567C18.4657 3.55315 18.4527 3.34526 18.2432 3.48701C18.2494 3.32265 18.2552 3.15899 18.259 2.99425C18.2278 3.40038 18.2 3.79768 18.1583 4.20874C18.0118 4.43249 17.9709 4.90298 17.797 5.0029C17.6236 5.10351 17.7703 4.53395 17.6697 4.34853C17.5861 4.1929 17.3679 4.13327 17.2602 3.97307C16.9649 4.15964 16.7606 4.0474 16.5793 3.67436C16.5291 3.74847 16.4797 3.82276 16.4301 3.89713C16.4259 4.03075 16.4221 4.16517 16.4182 4.29885C16.3606 4.23805 16.3025 4.1767 16.2442 4.11559C16.2629 3.95717 16.282 3.7988 16.3 3.64031C16.1906 3.57487 16.0796 3.51004 15.9664 3.44803C15.7396 3.94427 15.6321 4.12725 15.317 4.03936C15.3481 3.55059 15.5953 3.81246 15.7581 3.50967C15.706 3.35425 15.6118 3.71035 15.6013 3.47592C15.594 3.31229 15.5916 2.99761 15.4611 3.24918C15.453 3.35057 15.4418 3.46344 15.434 3.56559C15.2984 3.42639 15.1886 3.30759 15.0138 3.41585C14.9111 3.47978 14.8551 3.78415 14.7203 3.70936C14.7688 3.50166 14.8205 3.2847 14.8716 3.07291C14.7018 3.33138 14.5479 3.41573 14.3437 3.40824C14.2865 3.51507 14.2307 3.62283 14.1758 3.73003C14.2595 3.45836 14.3478 3.1886 14.4382 2.92001C14.2975 3.1103 14.1619 3.30391 14.0282 3.49842C14.0507 3.6301 14.0728 3.76254 14.0946 3.89427C13.8735 3.9107 13.6705 3.86433 13.4719 4.09432C13.4714 3.88357 13.4713 3.67209 13.4703 3.46134C13.3425 3.42898 13.2534 3.31516 13.1895 3.15111C13.1274 2.99157 13.0895 2.78456 13.0643 2.55952C12.9194 2.60422 13.0184 2.96872 12.9105 3.14521C12.8219 3.2908 12.6473 3.21451 12.5745 3.44964C12.5765 3.26004 12.5843 3.07179 12.5885 2.88289C12.4029 2.69067 12.3626 3.29817 12.2627 3.51282C12.2428 3.4117 12.2235 3.3113 12.2021 3.20952C12.1035 3.24362 12.0139 3.08528 11.92 3.09887C11.826 3.11253 11.7968 3.3454 11.7007 3.30781C11.6048 3.2696 11.5533 2.99682 11.4354 3.06912C11.324 3.44022 11.1784 3.62869 10.9919 3.82978C10.9661 3.72759 10.9409 3.62537 10.9146 3.52252C10.8733 3.63964 10.8324 3.75687 10.7926 3.87342C10.7186 3.80638 10.6444 3.73889 10.5699 3.67242C10.4952 3.71989 10.4175 3.76436 10.3459 3.81372C10.306 3.54992 10.5182 3.60581 10.5234 3.36005C10.5303 3.04187 10.3648 2.87593 10.2318 2.70592C10.0304 3.01823 9.94726 3.39558 9.9546 3.91709C9.91334 3.65305 9.87177 3.38905 9.8299 3.1251C9.75329 3.17196 9.67739 3.21841 9.60242 3.26586C9.64606 3.44685 9.69146 3.62764 9.73316 3.80892C9.66308 3.66807 9.54653 3.75748 9.49568 3.60354C9.38813 3.27568 9.42234 3.54415 9.29975 3.39246C9.21766 3.29136 9.24752 2.97449 9.08077 3.1653C9.13602 3.30418 9.19208 3.46224 9.24657 3.60877C9.19708 3.62719 9.14828 3.64568 9.09924 3.66363C9.08717 3.82987 9.07648 3.99673 9.06622 4.16287C8.9614 3.97214 8.85471 3.78209 8.74685 3.59261C8.71245 3.82632 8.68098 4.05989 8.6495 4.29383C8.61575 4.19434 8.57879 4.09471 8.54642 3.99501C8.38241 4.17914 8.22313 4.17437 8.03138 4.32108C7.9517 4.38248 7.7143 4.31583 7.61633 4.04591C7.56535 3.90677 7.63804 3.47752 7.47117 3.70861C7.39528 3.81444 7.35499 4.11626 7.22128 4.13309C7.33244 4.23681 7.44395 4.33129 7.55124 4.43417C7.48395 4.43155 7.41618 4.42941 7.34715 4.42875C7.3795 4.58887 7.41138 4.74761 7.44487 4.90746C7.26961 5.02056 7.27937 4.7818 7.12506 4.50699C7.10222 4.46687 6.99563 4.34941 6.95218 4.33185C6.87113 4.29787 6.69506 4.22503 6.64167 4.24941C6.52002 4.30543 6.54124 4.57688 6.42931 4.61941C6.31822 4.66195 6.16154 4.50974 6.07867 4.66425C6.15752 4.79789 6.23845 4.93946 6.31586 5.07694C6.24963 5.1104 6.18619 5.14672 6.12384 5.1818C6.30918 5.64916 6.11181 5.54446 5.92561 5.27789C5.95647 5.22753 5.98819 5.1764 6.02103 5.12521C5.98901 4.84678 5.95774 4.56946 5.93348 4.2887C5.84298 4.48409 5.75224 4.68111 5.67508 4.87463C5.5806 4.68539 5.48457 4.49604 5.38849 4.30754C5.2851 4.30654 5.18047 4.30511 5.08062 4.30545C5.1545 4.50543 5.2956 4.5952 5.37953 4.76877C5.52586 5.07301 5.5288 5.33677 5.65849 5.63719C5.63376 5.71258 5.60927 5.78924 5.58714 5.86463C5.57715 5.74602 5.57093 5.62607 5.56369 5.50615C5.46721 5.37913 5.36653 5.25425 5.26563 5.13062C5.21643 5.22394 5.17381 5.31471 5.12989 5.40671C5.04503 5.26994 4.95966 5.13428 4.87343 4.99829C4.72212 4.97625 4.57159 4.95727 4.41796 4.94443C4.43374 5.13378 4.45591 5.32219 4.48527 5.5055C4.36649 5.32782 4.24756 5.15113 4.12766 4.97419C4.14977 5.16066 4.17932 5.34468 4.21868 5.5242C4.13085 5.68266 4.06031 5.84394 4.02768 5.9858C3.78625 5.84758 3.62287 5.91229 3.30031 5.67289C3.28124 5.70819 3.26482 5.74072 3.2482 5.77582C3.33706 5.83381 3.42561 5.89227 3.51463 5.95133C3.4973 5.99265 3.48656 6.02937 3.47789 6.065C3.38416 6.01847 3.29008 5.9726 3.19579 5.92717C3.17646 5.98905 3.16524 6.04748 3.16142 6.10002C3.00618 6.07045 2.84862 6.05054 2.68984 6.03957C2.89748 6.10341 3.10831 6.15796 3.32019 6.20343C3.28303 6.2254 3.24797 6.25151 3.21512 6.28396C3.20604 6.29293 3.19715 6.3023 3.18844 6.31212C3.34913 6.30237 3.50991 6.29421 3.67001 6.2874C3.57152 6.29629 3.4734 6.32319 3.38225 6.36897C3.54086 6.33737 3.69887 6.30288 3.85621 6.26555C3.8652 6.26217 3.87415 6.26272 3.88709 6.26871C3.7879 6.31033 3.68735 6.35061 3.58667 6.3886C3.6923 6.36072 3.79546 6.32527 3.896 6.284C3.77397 6.36791 3.77503 6.46191 3.51395 6.65279C3.42706 6.67836 3.33802 6.69914 3.24795 6.71584C4.06762 6.19767 3.41111 6.53785 3.02164 6.55469C2.84571 6.60784 2.66806 6.65802 2.48984 6.70368C2.66998 6.84477 2.865 6.92772 3.06388 6.98572C3.1928 6.88928 3.3186 6.796 3.45079 6.69908C3.47661 6.74763 3.5559 6.74162 3.49981 6.8646C3.42669 7.03476 3.18342 7.21102 3.37019 7.26142C3.40604 7.15743 3.44649 7.04888 3.49344 6.94965C3.62373 6.85243 3.75135 6.75311 3.87753 6.65102C3.75365 6.82195 3.63768 6.99959 3.53185 7.18507C3.5865 7.22507 3.64447 7.26484 3.70185 7.3015C3.84345 7.13942 3.98438 6.97676 4.12436 6.81332C4.03451 7.09004 3.96588 7.32882 4.15868 7.37811C4.21626 7.28986 4.27364 7.20149 4.33133 7.11331C4.56983 7.17124 4.65953 7.50524 4.99409 7.39603C4.9917 7.4807 4.99037 7.56559 4.98968 7.64972C4.95059 7.69262 4.9113 7.73455 4.87178 7.77712C4.86986 7.91792 4.87117 8.06035 4.87679 8.20319C4.97427 8.01206 5.07122 7.81986 5.16767 7.62743C5.24038 7.71067 5.31086 7.79183 5.38749 7.87317C5.35057 7.97115 5.31376 8.06917 5.27707 8.16724C5.37123 8.14078 5.46603 8.11359 5.55731 8.08417C5.41648 8.32131 5.27115 8.55479 5.12513 8.79001C5.22632 8.87556 5.52653 8.80344 5.63379 8.51965C5.71747 8.29709 5.64255 8.19896 5.83709 7.99958C5.80072 7.93235 5.77215 7.86917 5.74087 7.80382C5.91721 7.8338 6.08492 7.72441 6.15916 7.99571C6.02581 8.0732 5.89382 8.14913 5.75815 8.22315C5.85747 8.37437 5.96449 8.52629 6.07552 8.67605C6.11297 8.64292 6.15019 8.60888 6.18741 8.57554C6.12891 8.7258 6.06952 8.87654 6.01041 9.02659C6.45256 8.62691 6.64405 8.95793 6.94408 9.20737C7.15222 9.00074 7.35478 8.79143 7.55115 8.57895C7.46522 8.53699 7.38322 8.49603 7.29729 8.45183C7.26858 8.39483 7.2403 8.33703 7.21293 8.28081C7.28186 8.29638 7.31677 8.35717 7.39064 8.21496C7.57884 7.85253 7.76516 7.64389 7.86224 7.18485C7.94754 7.00273 8.03138 6.8216 8.11412 6.63858C7.99247 7.10617 7.86944 7.57417 7.74534 8.04115C7.80776 7.99623 7.87031 7.95035 7.93203 7.90483C7.91128 8.00965 7.89022 8.11441 7.8692 8.21917C7.79649 8.31699 7.7217 8.41413 7.64728 8.51188C7.7443 8.45236 7.84073 8.39215 7.93493 8.33093C8.04684 8.15002 8.15751 7.96844 8.2665 7.78685C8.23829 7.9439 8.20982 8.10089 8.1818 8.25797C8.27582 8.32645 8.36667 8.39345 8.4612 8.46037C8.49795 8.56853 8.53583 8.67668 8.57518 8.78485C8.61692 8.521 8.65887 8.25719 8.70115 7.99269C8.73265 8.04224 8.7649 8.09255 8.79637 8.14186C8.85812 7.99146 8.92016 7.84992 8.9801 7.69383C8.72016 7.77085 8.68755 7.25924 8.99384 7.41561C9.06923 7.45364 8.97534 8.22151 9.08687 8.33869C9.04517 8.57063 8.99876 8.76328 8.95486 8.98004C9.04256 8.74586 9.12929 8.51284 9.21352 8.27854C9.17159 8.19509 9.12923 8.11137 9.08835 8.02768C9.21478 8.00888 9.31671 8.2345 9.43846 8.05622C9.41131 8.37391 9.38534 8.69175 9.36031 9.00896C9.40681 8.85151 9.45251 8.69392 9.49804 8.537C9.60411 8.54517 9.70873 8.55168 9.81357 8.55828C9.80326 8.66318 9.79335 8.76813 9.78348 8.87309C9.97302 8.72363 10.1613 8.57222 10.3438 8.4185C10.4772 8.58042 10.6154 8.7422 10.7534 8.90188C10.7508 8.74154 10.7484 8.58193 10.7464 8.42233C10.8122 8.42307 10.8786 8.4236 10.9449 8.42387C10.8876 8.71577 10.8723 8.93038 10.896 9.22228C11.0056 9.22235 11.1154 9.22615 11.2229 9.22182C11.2633 8.98553 11.1072 8.71576 11.2978 8.59547C11.4877 8.4756 11.6479 8.61136 11.765 8.88753C11.8363 8.78559 11.9053 8.67526 11.975 8.56985C11.9742 8.67309 11.9735 8.77705 11.9728 8.88102C12.0248 8.88396 12.0775 8.88679 12.1296 8.88944C12.0989 9.10285 12.0673 9.31619 12.0358 9.5295C12.2048 9.36406 12.3692 9.1971 12.533 9.02881C12.5729 9.18561 12.614 9.3416 12.6552 9.49822C12.7087 9.44211 12.7623 9.38585 12.8153 9.32945C12.8315 9.43649 12.8453 9.54715 12.863 9.65199C12.9487 9.66171 13.0125 9.35543 13.0149 9.2296C13.0211 8.93548 12.9049 8.91722 13.0575 8.67884C13.1 8.84185 13.1445 9.00304 13.1895 9.16472C13.2029 9.21303 13.2164 9.26138 13.2299 9.30985C13.3369 9.08945 13.4411 8.86848 13.5425 8.64698C13.6899 8.7425 13.8413 8.83536 13.9925 8.92997C13.9926 9.32071 14.049 10.1499 14.2703 10.3274C14.3065 10.3569 14.3055 10.1937 14.3617 10.1915C14.467 10.1881 14.539 10.3226 14.6377 10.1501C14.6818 10.3597 14.7239 10.5707 14.7687 10.7816C14.8115 10.7266 14.8538 10.6716 14.8965 10.6164C15.0232 10.6253 15.1489 10.6328 15.2745 10.6402C15.1875 10.6243 15.1004 10.6087 15.0127 10.592C15.0208 10.3225 15.027 10.0523 15.0336 9.78281C15.2343 9.71411 15.2193 9.91924 15.2409 10.2413C15.3521 10.227 15.4644 10.2119 15.5766 10.1969C15.5398 9.82626 15.5024 9.45489 15.4657 9.0842C15.414 9.08691 15.362 9.08875 15.3104 9.09115C15.2986 8.98858 15.2865 8.88602 15.2749 8.78343C15.1218 8.85793 14.9666 8.93191 14.8086 9.00464C14.9828 9.145 15.1579 9.28381 15.3344 9.42175C15.12 9.4525 14.8988 9.48108 14.6825 9.50754C14.6878 9.61057 14.6923 9.71292 14.6976 9.81595C14.6063 9.88291 14.5137 9.94873 14.4204 10.0148C14.3977 9.83709 14.3751 9.65858 14.3533 9.48077C14.3754 9.41765 14.3973 9.35377 14.419 9.2906C14.336 9.27288 14.2523 9.25409 14.1706 9.23561C14.2042 9.12612 14.237 9.01659 14.2699 8.90698C14.2521 8.80075 14.2351 8.69447 14.2178 8.58747C14.2996 8.61233 14.3827 8.63679 14.4654 8.66164C14.4682 8.73183 14.476 8.81424 14.4751 8.87727C14.6622 8.98865 14.5873 8.56523 14.7521 8.57762C14.8424 8.58474 15.1772 9.18339 14.9253 8.41789C15.0306 8.34314 15.1232 8.23263 15.2183 8.14783C15.2502 8.40265 14.9183 8.34844 15.1142 8.63135C15.221 8.78396 15.3384 8.23299 15.467 8.27431C15.4943 8.37189 15.5145 8.48181 15.5393 8.58398C15.5998 8.52228 15.6596 8.45966 15.7187 8.39687C15.7446 8.78901 15.8332 8.72021 15.9928 8.6767C15.9536 8.5748 15.9151 8.47277 15.8767 8.37144C15.9549 8.3556 16.034 8.35107 16.1106 8.3317C16.0899 8.22723 16.0876 8.11929 16.0714 8.01286C16.2109 7.95712 16.2412 8.0026 16.2658 8.30404C16.2136 8.31595 16.1622 8.31875 16.111 8.33166C16.1446 8.44505 16.2022 8.51598 16.2288 8.63595C16.1505 8.64988 16.072 8.66344 15.9928 8.6767C15.9917 8.67607 15.9907 8.67545 15.9896 8.67482ZM19.2268 11.7677C19.286 11.7526 19.3465 11.7361 19.4072 11.7201C19.3823 11.6162 19.357 11.5124 19.3321 11.4085C19.2722 11.4243 19.2128 11.4405 19.1544 11.4555C19.1784 11.5596 19.2024 11.6637 19.2268 11.7677ZM19.0009 11.821C19.0582 11.8069 19.0248 11.6591 18.968 11.6732C18.9112 11.6872 18.9435 11.8352 19.0009 11.821ZM13.7402 12.3206C13.7969 12.3159 13.7911 12.1645 13.7348 12.1692C13.6784 12.1738 13.6835 12.3252 13.7402 12.3206ZM13.1091 12.3632C13.1664 12.3596 13.1635 12.2082 13.1065 12.2117C13.0496 12.2152 13.0517 12.3667 13.1091 12.3632ZM11.9003 11.937C11.867 12.2295 12.108 12.5915 12.1525 12.1673C12.1668 12.0252 11.9608 11.8657 11.9003 11.937ZM25.932 7.40365C25.9775 7.29014 26.0178 7.17083 26.0528 7.04648C26.0016 7.03062 25.9504 7.01494 25.8992 6.99864C25.866 7.11743 25.8275 7.23218 25.7841 7.34073C25.8335 7.36126 25.8827 7.38276 25.932 7.40365ZM15.2288 11.6913C15.2846 11.6847 15.2715 11.5337 15.2165 11.5403C15.161 11.5468 15.1733 11.6978 15.2288 11.6913ZM24.9905 8.31103C25.0537 8.24567 25.1129 8.17215 25.1726 8.09397C25.1296 8.06203 25.087 8.02966 25.0438 7.99796C24.986 8.07385 24.9258 8.14395 24.8643 8.20735C24.9067 8.24229 24.9484 8.27687 24.9907 8.31197C24.9906 8.31165 24.9905 8.31134 24.9905 8.31103ZM13.1872 11.7208C13.188 11.7194 13.1887 11.7179 13.1895 11.7164C13.2315 11.6352 13.2732 11.5532 13.3148 11.4718C13.2994 11.4463 13.2844 11.4207 13.2694 11.3951C13.243 11.4471 13.2163 11.4993 13.1895 11.5514C13.1736 11.5823 13.1576 11.6132 13.1417 11.644C13.1567 11.6696 13.1721 11.6952 13.1876 11.7208C13.1875 11.7208 13.1873 11.7208 13.1872 11.7208ZM24.6196 8.43121C24.6794 8.37743 24.5638 8.2738 24.5067 8.32473C24.4491 8.37496 24.5594 8.48422 24.6196 8.43121ZM20.2924 10.2718C20.3455 10.2538 20.3001 10.1093 20.2477 10.127C20.1951 10.1447 20.2392 10.2897 20.2924 10.2718ZM15.5952 11.3259C15.6538 11.3183 15.7122 11.3099 15.7701 11.302C15.7648 11.2488 15.7591 11.1957 15.7538 11.1426C15.6958 11.1504 15.6377 11.1589 15.5798 11.1664C15.5848 11.2195 15.5902 11.2727 15.5952 11.3259ZM12.4783 11.5921C12.5343 11.5897 12.5345 11.4382 12.4789 11.4406C12.4232 11.443 12.4222 11.5945 12.4783 11.5921ZM0.639482 8.29742C0.702444 8.38991 0.76956 8.48184 0.835343 8.56518C0.904723 8.28891 1.03817 8.39358 1.21406 8.26817C1.1226 8.15238 1.036 8.03156 0.954391 7.89887C0.846445 8.02944 0.73993 8.1597 0.639482 8.29742ZM25.4092 6.93682C25.4376 6.83947 25.2904 6.80185 25.2641 6.8918C25.2362 6.98066 25.3792 7.03227 25.4092 6.93682ZM15.0592 11.2321C15.1171 11.2249 15.1753 11.2182 15.2329 11.2107C15.2242 11.1042 15.2151 10.9977 15.206 10.8913C15.149 10.898 15.0915 10.9054 15.0342 10.9125C15.0422 11.019 15.0507 11.1255 15.0592 11.2321ZM1.95837 9.00238C1.88969 9.08429 1.82161 9.16675 1.7528 9.24952C1.78657 9.27594 1.82084 9.30311 1.85393 9.32772C1.92023 9.24383 1.98711 9.16044 2.05415 9.07718C2.02176 9.05306 1.99001 9.02798 1.95788 9.00292C1.95805 9.00274 1.95821 9.00256 1.95837 9.00238ZM17.5828 10.664C17.6373 10.6532 17.6115 10.504 17.5575 10.5146C17.5034 10.5253 17.5282 10.6747 17.5828 10.664ZM6.23209 10.8717C6.32304 10.8892 6.41054 10.9058 6.50084 10.9217C6.51308 10.8697 6.52534 10.8177 6.53761 10.7657C6.44803 10.7499 6.36143 10.7335 6.27105 10.7162C6.25846 10.7681 6.24507 10.8198 6.2325 10.8718C6.23237 10.8717 6.23223 10.8717 6.23209 10.8717ZM24.5197 7.34583C24.6118 7.40024 24.7042 7.45563 24.7959 7.51073C24.8191 7.47463 24.8413 7.43843 24.8624 7.40079C24.7687 7.34919 24.6737 7.2984 24.5793 7.24805C24.5598 7.28118 24.5399 7.31333 24.5197 7.34583ZM20.9656 9.5062C21.0161 9.48571 20.9627 9.34393 20.913 9.36413C20.8631 9.38427 20.9149 9.52662 20.9656 9.5062ZM12.4381 10.6368C12.4373 10.7971 12.4366 10.9573 12.4359 11.1176C12.465 11.1161 12.4942 11.1153 12.5234 11.1137C12.5236 10.9535 12.5239 10.7932 12.5242 10.6329C12.4955 10.6345 12.4668 10.6353 12.4381 10.6368ZM12.1315 11.1248C12.1863 11.123 12.1879 10.9715 12.1335 10.9733C12.0791 10.9751 12.0767 11.1266 12.1315 11.1248ZM10.6461 11.137C10.7015 11.138 10.7106 10.9867 10.6556 10.9858C10.6006 10.9848 10.5907 11.136 10.6461 11.137ZM20.1129 8.98091C20.1619 9.13349 20.2106 9.28617 20.2597 9.43872C20.2732 9.43455 20.2866 9.42885 20.2999 9.42396C20.3155 9.33326 20.3302 9.24264 20.3439 9.15145C20.2664 9.09483 20.1894 9.03774 20.1127 8.98021C20.1127 8.98045 20.1128 8.98068 20.1129 8.98091ZM19.4853 9.19265C19.4423 9.34627 19.3961 9.50012 19.3478 9.65392C19.3682 9.67597 19.3886 9.69728 19.4091 9.71927C19.4504 9.5021 19.5802 9.67193 19.6943 9.63143C19.624 9.48593 19.5545 9.33937 19.4855 9.19335C19.4854 9.19312 19.4854 9.19288 19.4853 9.19265ZM8.49262 10.7015C8.54771 10.7063 8.56875 10.557 8.51426 10.5515C8.45983 10.546 8.43771 10.6959 8.49262 10.7015ZM18.5242 9.46585C18.5471 9.5702 18.5704 9.67447 18.5933 9.77882C18.607 9.77597 18.6207 9.7716 18.6342 9.76801C18.6519 9.65288 18.669 9.5385 18.6851 9.42345C18.6317 9.43801 18.5779 9.45169 18.5238 9.46592C18.524 9.4659 18.5241 9.46587 18.5242 9.46585ZM13.2804 9.94778C13.25 9.9676 13.2195 9.95452 13.1895 9.93333C13.1327 9.89319 13.0786 9.82394 13.0305 9.89409C12.9055 10.0755 13.0858 10.3101 12.9505 10.5302C13.0314 10.3918 13.1111 10.2532 13.1895 10.1125C13.2201 10.0577 13.2504 10.0026 13.2804 9.94705C13.2804 9.9473 13.2804 9.94754 13.2804 9.94778ZM11.9241 10.6542C11.9811 10.6529 12.0396 10.6508 12.0958 10.6491C12.0977 10.5423 12.0992 10.4355 12.1012 10.3286C12.0435 10.4371 11.9837 10.5454 11.9241 10.6542ZM3.18276 2.68549C3.12595 2.7253 3.06956 2.76581 3.01443 2.80655C3.04352 2.85139 3.07297 2.89601 3.10162 2.94026C3.15567 2.90022 3.211 2.86039 3.26678 2.82121C3.23882 2.77566 3.21042 2.73036 3.18276 2.68549ZM10.2404 10.1718C10.4331 10.2134 10.4745 10.6123 10.6592 10.2613C10.4186 9.80722 10.6929 9.6209 10.739 9.06222C10.599 9.14033 10.456 9.21791 10.312 9.29357C10.364 9.32319 10.4163 9.35267 10.469 9.38201C10.4533 9.59221 10.4373 9.80237 10.4217 10.0133C10.3613 10.0663 10.3008 10.1191 10.24 10.1718C10.2401 10.1718 10.2403 10.1718 10.2404 10.1718ZM9.42888 9.81559C9.54111 9.76359 9.56897 10.1609 9.54544 10.3033C9.63639 10.2544 9.72548 10.2064 9.81702 10.1561C9.83314 9.98411 9.85923 9.82957 9.81917 9.67885C9.75326 9.42907 9.70498 9.68347 9.58161 9.63952C9.50936 9.61388 9.44891 9.43896 9.34185 9.49262C9.27316 9.69724 9.2066 9.9102 9.13723 10.1175C9.22067 10.1237 9.30464 10.1288 9.38931 10.1344C9.40245 10.0284 9.41561 9.92234 9.42926 9.81564C9.42913 9.81563 9.42901 9.81561 9.42888 9.81559ZM8.09083 10.182C8.17599 10.1915 8.26207 10.2007 8.34829 10.2094C8.35649 10.1566 8.36471 10.1038 8.37293 10.051C8.28733 10.0424 8.20186 10.0333 8.11732 10.0239C8.10848 10.0766 8.09965 10.1293 8.09083 10.182ZM1.4934 7.20582C1.52948 7.28138 1.66551 7.2143 1.63205 7.1445C1.59968 7.07386 1.4585 7.1293 1.4934 7.20582ZM22.903 2.31123C22.8504 2.25913 22.7626 2.37651 22.8139 2.42852C22.8651 2.47989 22.9547 2.36399 22.903 2.31123ZM6.44905 1.52963C6.392 1.55211 6.33495 1.57489 6.2787 1.59776C6.34216 1.80117 6.40536 2.00465 6.46851 2.2089C6.52288 2.18662 6.57806 2.16441 6.63326 2.14249C6.57216 1.93837 6.51123 1.73421 6.44905 1.52963ZM25.3946 5.45279C25.3715 5.35136 25.338 5.25198 25.3026 5.15573C25.2537 5.17342 25.2042 5.19147 25.1551 5.20874C25.189 5.30088 25.2187 5.39523 25.2406 5.492C25.2924 5.47868 25.3435 5.46568 25.3953 5.45259C25.3951 5.45266 25.3949 5.45272 25.3946 5.45279ZM11.0966 10.0249C11.1805 10.0251 11.2644 10.0248 11.3489 10.0242C11.3532 9.91747 11.358 9.81073 11.3624 9.70397C11.2789 9.70459 11.196 9.70489 11.113 9.70482C11.1076 9.81153 11.1019 9.91823 11.0966 10.0249ZM10.0007 10.0042C10.0567 10.006 10.1127 10.0084 10.1687 10.0099C10.1731 9.95665 10.1776 9.90341 10.182 9.85017C10.1261 9.84867 10.0704 9.84629 10.0151 9.84452C10.0103 9.89773 10.0051 9.9509 10.0007 10.0042ZM10.8118 9.85852C10.8648 9.85918 10.8738 9.70795 10.8212 9.70731C10.7685 9.70663 10.7588 9.85781 10.8118 9.85852ZM13.5644 9.60385C13.6164 9.59951 13.6115 9.4481 13.5599 9.45244C13.5081 9.45672 13.5123 9.60814 13.5644 9.60385ZM4.38471 8.69792C4.4362 8.71752 4.49826 8.58009 4.44829 8.56039C4.39821 8.54123 4.33375 8.67755 4.38471 8.69792ZM12.259 0.453702C12.2459 0.482632 12.2328 0.512301 12.2194 0.541259C12.2682 0.612249 12.3167 0.68262 12.3642 0.754581C12.3773 0.725695 12.3905 0.696085 12.4036 0.667214C12.3561 0.595194 12.3075 0.524764 12.2586 0.453714C12.2587 0.45371 12.2589 0.453707 12.259 0.453702ZM11.2868 9.54441C11.3697 9.54399 11.4529 9.54323 11.5359 9.54209C11.5371 9.51577 11.5378 9.4887 11.539 9.46238C11.4697 9.29935 11.4208 9.19534 11.3015 9.22492C11.2967 9.33167 11.2915 9.43839 11.2868 9.54514C11.2868 9.54489 11.2868 9.54465 11.2868 9.54441ZM10.0445 9.52531C10.0994 9.52706 10.1544 9.52938 10.2093 9.53078C10.2183 9.4243 10.2277 9.31787 10.2367 9.2114C10.1731 9.3165 10.1091 9.42065 10.0445 9.52459C10.0445 9.52483 10.0445 9.52507 10.0445 9.52531ZM9.17411 9.15772C9.16049 9.2637 9.14689 9.36968 9.13333 9.47567C9.16084 9.47757 9.1884 9.47942 9.21564 9.48118C9.22884 9.37514 9.24206 9.26911 9.25531 9.16308C9.22807 9.16132 9.20089 9.15951 9.17411 9.15772ZM4.10026 8.41213C4.21666 8.37625 4.32541 8.33464 4.43635 8.29298C4.40927 8.22311 4.38353 8.15408 4.36008 8.08478C4.44494 7.97763 4.52853 7.86967 4.61133 7.76117C4.47177 7.64667 4.3416 7.53063 4.22027 7.40971C4.13621 7.54531 4.05278 7.68044 3.9692 7.81634C3.89528 7.83926 3.82281 7.8633 3.74583 7.88252C3.8705 7.99098 4.00922 7.93978 4.2224 7.7692C4.17378 7.9805 4.13323 8.19447 4.09992 8.41195C4.10003 8.41201 4.10014 8.41207 4.10026 8.41213ZM2.7561 7.1211C2.69476 7.21346 2.63597 7.30748 2.58233 7.40643C2.6744 7.3887 2.7649 7.36732 2.85432 7.34333C2.87435 7.32622 2.8945 7.3081 2.91433 7.29075C2.85772 7.23489 2.80658 7.18166 2.7561 7.1211ZM2.52806 6.07784C2.36936 6.05531 2.21051 6.0338 2.05139 6.01408C2.05035 6.03009 2.04948 6.04646 2.04887 6.06257C2.19087 6.1772 2.30107 6.22583 2.53094 6.21873C2.52755 6.17222 2.52615 6.12478 2.52812 6.07752C2.5281 6.07762 2.52808 6.07773 2.52806 6.07784ZM13.7998 9.26329C13.8515 9.25852 13.8454 9.10716 13.794 9.11191C13.7425 9.11661 13.7479 9.268 13.7998 9.26329ZM11.6243 9.38064C11.7062 9.37921 11.788 9.37741 11.8705 9.37529C11.8958 8.72335 11.6288 9.20306 11.6243 9.38064ZM9.84371 9.03614C9.83293 9.14245 9.82218 9.24876 9.81109 9.35503C9.83863 9.35619 9.86622 9.3573 9.89377 9.35911C9.90414 9.25276 9.91491 9.14646 9.92534 9.04011C9.89805 9.03907 9.87082 9.03799 9.84371 9.03614ZM6.79683 3.27837C6.83481 3.11895 6.87582 2.95928 6.91941 2.79951C6.74524 2.66858 6.57355 2.53847 6.39251 2.41183C6.49799 2.54048 6.59878 2.67156 6.69983 2.80215C6.73202 2.96092 6.76448 3.11963 6.7972 3.27827C6.79708 3.2783 6.79696 3.27834 6.79683 3.27837ZM15.4087 8.92139C15.4595 8.91441 15.4446 8.76366 15.3946 8.77058C15.3441 8.77747 15.3582 8.9283 15.4087 8.92139ZM8.22747 8.42621C8.02108 8.40998 7.92638 8.65146 7.87062 9.02655C7.9984 8.95662 8.22801 8.69495 8.22747 8.42621ZM3.56783 7.59367C3.67367 7.62153 3.6353 7.74033 3.67542 7.84433C3.81594 7.6595 3.82919 7.54763 3.85126 7.39333C3.75985 7.46296 3.6641 7.52885 3.56738 7.59425C3.56753 7.59405 3.56768 7.59386 3.56783 7.59367ZM4.60388 4.41803C4.46626 4.19072 4.32688 3.96519 4.18573 3.73986C4.24063 3.99037 4.30217 4.23912 4.36936 4.48477C4.44585 4.46172 4.52426 4.43991 4.60388 4.41803ZM12.1139 0.970007C12.0595 0.980682 12.0699 1.13114 12.1235 1.12123C12.1772 1.11138 12.1684 0.960116 12.1139 0.970007ZM7.57942 8.82513C7.63304 8.83295 7.6879 8.8408 7.74085 8.848C7.7513 8.7956 7.76175 8.74321 7.77222 8.69082C7.71953 8.68367 7.66526 8.67594 7.61208 8.66822C7.60119 8.72052 7.5903 8.77283 7.57942 8.82513ZM11.3574 8.89861C11.4085 8.89822 11.415 8.74687 11.3643 8.74727C11.3136 8.74762 11.3063 8.89894 11.3574 8.89861ZM2.69896 6.28442C2.70483 6.32447 2.71225 6.36365 2.7225 6.40189C2.82143 6.35882 2.92212 6.32509 3.02403 6.3006C3.02273 6.29514 3.02149 6.28953 3.02031 6.28396C3.02002 6.2826 3.01974 6.28124 3.01946 6.27989C2.92106 6.28056 2.82266 6.28215 2.72427 6.28396C2.71583 6.28411 2.7074 6.28427 2.69896 6.28442ZM2.99921 5.57351C2.97934 5.61282 3.10759 5.69219 3.12535 5.65742C3.14312 5.62347 3.01967 5.53558 2.99921 5.57351ZM3.83118 4.60559C3.79262 4.63788 3.88036 4.76142 3.91745 4.73015C3.95462 4.69825 3.87021 4.57329 3.83118 4.60559ZM4.21993 4.69477C4.16351 4.60401 4.10703 4.51413 4.05005 4.42371C4.02872 4.4405 4.0082 4.45614 3.98654 4.47351C4.04473 4.56316 4.10209 4.65246 4.16001 4.74229C4.17975 4.72612 4.19979 4.71081 4.21993 4.69477ZM7.62615 2.7893C7.53336 2.76594 7.43884 2.74352 7.34347 2.72189C7.42155 3.03437 7.55118 3.16556 7.70501 3.10015C7.67878 2.99652 7.65249 2.8929 7.6263 2.79002C7.62625 2.78978 7.6262 2.78954 7.62615 2.7893ZM8.7418 8.4755C8.79135 8.48038 8.81371 8.33055 8.76465 8.32573C8.71566 8.32086 8.69232 8.47055 8.7418 8.4755ZM7.82863 2.72342C7.77721 2.74076 7.81352 2.88791 7.86445 2.87069C7.91551 2.85353 7.88019 2.70614 7.82863 2.72342ZM3.50236 5.38246C3.47586 5.41586 3.58459 5.52138 3.60902 5.49006C3.63416 5.4585 3.52958 5.34886 3.50236 5.38246ZM7.34349 3.3749C7.35514 3.29146 7.06634 3.02084 7.04019 3.20671C7.03105 3.28957 7.32049 3.55748 7.34349 3.3749ZM12.2324 2.23045C12.2231 2.07115 12.2141 1.91184 12.2047 1.75255C12.191 1.75519 12.1774 1.75856 12.1634 1.76123C12.0883 1.92188 12.0414 2.03942 12.07 2.26459C12.1238 2.25307 12.1778 2.24169 12.232 2.23046C12.2322 2.23046 12.2323 2.23045 12.2324 2.23045ZM5.82893 3.90046C5.78272 3.92361 5.83783 4.06478 5.88331 4.04191C5.92902 4.01908 5.87537 3.87735 5.82893 3.90046ZM21.3089 3.95744C21.3589 3.86655 21.4092 3.77579 21.4591 3.68568C21.435 3.66353 21.4103 3.64209 21.3852 3.61985C21.335 3.71153 21.2858 3.80281 21.2361 3.89474C21.2602 3.91647 21.2845 3.93687 21.3083 3.95797C21.3085 3.95779 21.3087 3.95762 21.3089 3.95744ZM12.6549 2.4696C12.7328 2.37601 12.812 2.28272 12.8922 2.189C12.8348 2.11785 12.7772 2.04832 12.7189 1.97823C12.6977 2.14248 12.6765 2.30602 12.6549 2.4696ZM17.3921 2.18268C17.3393 2.17258 17.3101 2.32064 17.3621 2.3306C17.4143 2.34066 17.4444 2.19278 17.3921 2.18268ZM15.3441 2.12706C15.2914 2.12473 15.2804 2.27506 15.3328 2.27737C15.3852 2.27972 15.3969 2.12944 15.3441 2.12706ZM18.0839 2.95505C17.8552 2.95975 17.7618 2.81485 17.6274 2.54227C17.6987 2.80662 17.7675 3.06616 17.8355 3.32418C17.7971 3.42215 17.7597 3.52107 17.7228 3.61936C17.7248 3.80689 17.722 3.9981 17.7206 4.18518C17.8834 4.25179 17.9276 3.90477 17.9508 3.66189C17.9827 3.32993 17.9091 3.23607 18.0841 2.95433C18.084 2.95457 18.084 2.95481 18.0839 2.95505ZM13.3138 2.84562C13.3135 2.74025 13.3128 2.63488 13.3117 2.52878C13.2843 2.53233 13.257 2.53518 13.2296 2.5388C13.2314 2.6449 13.2332 2.75027 13.2338 2.85637C13.2605 2.85275 13.2872 2.84917 13.3139 2.84489C13.3138 2.84513 13.3138 2.84538 13.3138 2.84562ZM15.3916 2.60749C15.3394 2.60504 15.328 2.75534 15.3799 2.75776C15.4321 2.76026 15.4442 2.61001 15.3916 2.60749ZM15.692 2.94616C15.6411 2.94173 15.6278 3.09335 15.6784 3.09701C15.729 3.10072 15.7433 2.94994 15.692 2.94616ZM16.0238 3.28833C16.0689 3.08026 15.8975 2.92417 15.8129 2.94966C15.8031 3.05604 15.7933 3.16242 15.7832 3.26876C15.8619 3.27453 15.9439 3.28024 16.0239 3.28761C16.0239 3.28785 16.0239 3.28809 16.0238 3.28833ZM17.0328 3.09317C16.9784 3.08551 16.9236 3.07653 16.869 3.06848C16.8616 3.12138 16.8541 3.17427 16.8468 3.22644C16.9011 3.2337 16.9555 3.24264 17.0095 3.25097C17.0173 3.19813 17.0251 3.14528 17.0328 3.09317ZM13.9437 3.74423C13.9569 3.58211 13.9285 3.32722 13.828 3.29206C13.8001 3.28195 13.7967 3.40919 13.7442 3.39281C13.6921 3.37572 13.6318 3.24078 13.5541 3.29396C13.6396 3.62805 13.7467 3.79699 13.9437 3.74423ZM17.5886 3.51476C17.5358 3.50522 17.512 3.6548 17.5639 3.6642C17.6157 3.67365 17.6408 3.52429 17.5886 3.51476Z" fill="#AD0200"/>
</svg>
