<svg preserveAspectRatio="none" overflow="visible" style="display: block;" width="21.9971" height="10.1454" viewBox="0 0 21.9971 10.1454" fill="none" xmlns="http://www.w3.org/2000/svg">
<path id="Vector 168" d="M8.80705 9.84369C8.79675 9.77968 8.82131 9.50099 8.87968 9.54343C9.01305 9.36068 8.77814 9.43333 8.76202 9.45088C8.67809 9.54418 8.78582 9.62947 8.75233 9.71709C8.70046 9.85254 8.50519 9.78537 8.456 9.75212C8.40681 9.7189 8.44913 9.64908 8.42932 9.63651C8.39209 9.61312 8.38486 9.6985 8.3633 9.7029C7.92673 9.78996 7.46552 9.56601 7.08522 9.47316C6.96493 9.44381 6.92864 9.32493 6.86456 9.31123C6.75929 9.28915 6.71665 9.39616 6.63396 9.38057C6.53449 9.3616 6.39837 9.14883 6.34482 9.12367C6.26002 9.08424 6.25496 9.25789 6.20766 9.27046C6.16039 9.28301 6.06712 9.24548 6.04736 9.23903C5.98772 9.219 6.0422 9.12798 5.99489 9.11639C5.94738 9.10488 5.91509 9.23999 5.84484 9.19726C5.83799 9.19296 5.81961 9.04279 5.77498 9.07885C5.7609 9.09051 5.82813 9.17487 5.74117 9.19416C5.53808 9.24082 5.11265 9.11736 4.89967 9.06607C4.8231 9.04759 4.86993 8.98401 4.8277 8.9601C4.78543 8.93627 4.78409 9.01247 4.76934 9.01187C4.65129 9.00716 4.51583 9.04429 4.41139 9.02169C4.3196 9.00174 4.30857 8.85214 4.21804 8.89098C4.19128 8.90272 4.22227 8.98457 4.16992 8.99267C4.12393 8.99961 4.04903 8.91961 3.99154 8.92524C3.96355 8.928 3.93008 9.02404 3.90716 9.03754C3.85583 9.06807 3.77456 8.97345 3.75617 8.96787C3.70589 8.95211 3.72738 9.02229 3.69725 9.01947C3.50666 9.00177 3.33335 8.97541 3.13943 8.97125C3.11091 8.97059 3.10955 8.88601 3.06667 8.90713C3.05662 8.91209 3.05611 8.97947 3.03401 8.98754C2.87702 9.04398 2.95777 8.9644 2.90514 8.87587C2.87632 8.82798 2.84193 8.95078 2.82496 8.95361C2.64581 8.98362 2.48664 9.04031 2.28965 9.01242C2.27902 9.01092 2.22897 8.91867 2.19397 8.93818C2.16877 8.95238 2.15225 9.01191 2.13152 9.01913C2.06662 9.0415 1.99665 8.95555 1.94855 8.95919C1.76609 8.97349 1.64025 9.07983 1.44326 9.0573C1.40596 9.0531 1.37792 8.95602 1.31378 8.95291C1.10618 8.94477 0.912942 8.95015 0.693855 8.9199C0.606738 8.9075 0.479469 8.98678 0.396524 8.81637C0.470628 8.81108 0.535674 8.82048 0.558079 8.7047C0.364812 8.61989 0.179749 8.82285 0.0108979 8.52587C-0.0231971 8.46638 0.0297191 8.36132 0.0732333 8.40291C0.0958263 8.42466 0.0750042 8.51772 0.142332 8.53651C0.194172 8.55102 0.318257 8.5244 0.365753 8.47935C0.385343 8.46064 0.356291 8.40621 0.37411 8.38611C0.411006 8.34412 0.51135 8.30342 0.536038 8.2705C0.560641 8.23753 0.523339 8.20212 0.5395 8.18355C0.909071 7.75185 0.969122 7.67571 1.51747 7.85899C1.71664 7.92825 1.56738 7.77552 1.61396 7.66304C1.65402 7.56691 1.7007 7.7321 1.75596 7.69932C1.76714 7.69279 1.79172 7.57069 1.82013 7.55703C1.91807 7.5088 2.0121 7.52019 2.11898 7.485C2.14075 7.47798 2.13624 7.38992 2.19352 7.40737C2.33441 7.45114 2.24196 7.64175 2.3026 7.7607C2.31272 7.78055 2.43082 7.74905 2.42691 7.69978C2.42331 7.6506 2.32859 7.46646 2.38149 7.41329C2.49614 7.29889 2.55611 7.57483 2.57327 7.59529C2.71184 7.76025 2.59621 7.42504 2.62948 7.35407C2.68986 7.22683 2.84407 7.25745 2.9485 7.24324C2.97699 7.23943 2.93397 7.31747 2.9824 7.29755C3.00865 7.28692 3.04548 7.17948 3.136 7.19225C3.19942 7.20035 3.47825 7.17643 3.54417 7.29409C3.59281 7.3778 3.53304 7.55074 3.63386 7.56113C3.68191 7.4959 3.57184 7.21903 3.6004 7.18603C3.73754 7.03024 3.98805 7.06689 4.13723 7.12712C4.20135 7.15287 4.17933 7.28774 4.25658 7.28769C4.29116 7.28779 4.30482 7.21511 4.35611 7.2082C4.40909 7.20107 4.45624 7.26609 4.52885 7.24596C4.55374 7.23899 4.60896 7.07367 4.66105 7.05993C4.76177 7.03276 5.04446 6.9796 5.1187 7.0277C5.2657 7.12067 5.21972 7.27481 5.38421 7.27156C5.43834 7.27063 5.51826 7.096 5.53383 7.08888C5.67902 7.02296 5.79002 7.08233 5.91727 7.07207C5.94314 7.07007 5.92765 7.0107 5.94716 7.0192C5.96674 7.02773 5.96798 7.09666 5.99529 7.10513C6.0378 7.11805 6.14002 7.05122 6.14944 7.05113C6.26052 7.05039 6.3084 7.12808 6.39721 7.14985C6.44664 7.16215 6.45516 7.08669 6.52028 7.11179C6.57462 7.13284 6.55148 7.31799 6.6206 7.30494C6.63507 7.30189 6.7575 7.13502 6.79821 7.12287C7.00671 7.14514 7.32477 7.0571 7.48754 7.15153C7.57726 7.20377 7.38939 7.28864 7.51986 7.29954C7.54738 7.30192 7.6879 7.13962 7.77144 7.14604C7.82825 7.1504 7.98275 7.16242 8.05006 7.21581C8.09297 7.24962 8.06377 7.36331 8.12756 7.40979C8.1561 7.43029 8.29171 7.51935 8.35447 7.48999C8.37851 7.47878 8.29343 7.3757 8.38349 7.34256C8.47437 7.30947 8.74966 7.31953 8.87591 7.33198C8.90993 7.33539 8.88025 7.26231 8.93797 7.28615C8.99593 7.31005 9.11765 7.44708 9.20711 7.40784C9.18312 7.46447 9.10491 7.58434 9.18815 7.55944C9.23257 7.54601 9.20834 7.47849 9.22468 7.44761C9.24099 7.41677 9.37628 7.39238 9.38297 7.39193C9.45826 7.38404 9.4637 7.47845 9.51554 7.47673C9.70669 7.47077 9.92425 7.35838 10.0895 7.44325C10.248 7.52525 10.0998 7.6095 10.0979 7.73601C10.0962 7.90967 10.3259 7.81255 10.3534 7.77217C10.4246 7.67173 10.3395 7.54161 10.4573 7.57469C10.4663 7.57726 10.5274 7.70029 10.5235 7.7169C10.5042 7.79946 10.3901 7.85044 10.4571 7.9102C10.5415 7.9847 10.7093 7.59599 10.7222 7.57843C10.8372 7.4305 10.8864 7.73551 10.8984 7.74882C10.9898 7.85642 10.9777 7.64708 11.001 7.61146C11.0583 7.52414 11.1672 7.58643 11.2091 7.60926C11.2655 7.63976 11.2115 7.75096 11.2776 7.72285C11.2923 7.71645 11.2951 7.64059 11.321 7.63904C11.3934 7.63452 11.5275 7.58844 11.5855 7.67636C11.6437 7.76434 11.5555 7.86778 11.6751 7.87858C11.8866 7.89578 11.7476 7.70828 11.8586 7.63096C11.8933 7.60673 12.0618 7.68461 12.0887 7.75823C12.1164 7.83243 11.9759 8.06632 12.1206 8.05897C12.2394 8.05256 12.3453 7.44637 12.5101 7.65511C12.5465 7.69934 12.5057 7.78488 12.5549 7.83978C12.5778 7.86607 12.7269 7.93342 12.7593 7.86873C12.7712 7.84449 12.7445 7.72093 12.7567 7.65957C12.7972 7.44563 12.8866 7.68822 12.9668 7.72795C13.0698 7.77834 13.061 7.46601 13.1719 7.64809C13.3084 7.85853 13.1702 8.2119 13.4843 8.10949C13.6136 8.06493 13.5401 7.88565 13.4539 7.73979C13.5239 7.77791 13.5873 7.67255 13.6497 7.71068C13.7125 7.74869 13.7983 8.01442 13.872 7.9834C13.8753 7.98231 13.849 7.91133 13.8523 7.90692C13.8945 7.84919 13.9025 7.57985 13.909 7.54818C13.9368 7.4265 13.9686 7.58751 13.9915 7.5945C14.0774 7.61909 14.0826 7.55528 14.1612 7.56183C14.2263 7.56697 14.2503 7.54296 14.1744 7.43974C14.2463 7.42093 14.3099 7.38516 14.3851 7.3691C14.3894 7.36824 14.4359 7.4661 14.4314 7.47429C14.39 7.54918 14.3667 7.52075 14.3973 7.68322C14.7355 7.89803 14.5528 7.71526 14.5365 7.56284C14.5188 7.38954 14.7174 7.44002 14.7253 7.58555C14.7369 7.42863 14.9402 7.52311 14.99 7.45698C15.0523 7.37273 14.887 7.29999 14.8864 7.21312C14.886 7.19276 14.9874 7.19099 15.0042 7.20284C15.091 7.26587 15.0803 7.36695 15.1547 7.31322C15.2184 7.26683 15.0634 7.07847 15.0547 7.04217C15.0368 6.96887 15.1732 7.06938 15.183 7.05976C15.225 7.0194 15.1681 6.94373 15.2447 6.93573C15.2882 6.93194 15.5498 7.08916 15.5768 7.07747C15.6964 7.02663 15.5335 6.88421 15.6699 6.79763C15.6935 6.78273 15.8221 6.82588 15.8464 6.81106C15.8721 6.79528 15.7703 6.62077 15.8649 6.67794C15.8949 6.69592 15.9991 6.87125 16.0506 6.83434C16.1022 6.79739 15.9908 6.71362 15.9885 6.67012C15.9815 6.54817 16.1295 6.53255 16.1885 6.48196C16.2139 6.46033 16.1575 6.40562 16.1646 6.4009C16.2056 6.37396 16.4476 6.49521 16.4293 6.40077C16.4137 6.32649 16.2633 6.23982 16.3962 6.24227C16.4048 6.24249 16.4274 6.30449 16.4628 6.29989C16.4796 6.29824 16.6104 6.22226 16.6188 6.22044C16.7114 6.20698 16.6481 6.08525 16.6464 6.0696C16.6378 5.9874 16.7376 6.08206 16.7706 6.03163C16.7869 6.00721 16.7689 5.8745 16.8486 5.9005C16.8655 5.90584 16.9396 6.0236 16.9644 6.028C17.0614 6.04525 16.9797 5.82208 17.0039 5.78022C17.0105 5.76918 17.0735 5.83568 17.0816 5.83652C17.1294 5.842 17.1507 5.85694 17.1556 5.74238C17.1583 5.67457 17.4189 5.70029 17.4049 5.59527C17.3969 5.53885 17.2964 5.52574 17.3286 5.46911C17.3531 5.42622 17.5535 5.57417 17.5675 5.57134C17.6707 5.55064 17.4631 5.45503 17.4603 5.40294C17.4573 5.35134 17.5921 5.26845 17.6231 5.24071C17.6756 5.19395 17.7027 5.29333 17.7499 5.23552C17.7588 5.22457 17.741 5.08445 17.841 5.104C17.889 5.11241 17.966 5.23987 18.0304 5.21679C18.1014 5.19108 18.0364 5.04799 18.0871 5.00011C18.0933 4.9944 18.1362 5.02496 18.1468 5.0268C18.2114 5.03872 18.1983 4.86044 18.3115 5.02476C18.3819 5.12719 18.2961 5.41156 18.5103 5.5649C18.5646 5.60398 18.6941 5.61644 18.7088 5.62591C18.8745 5.73563 18.7358 5.69344 18.7475 5.77507C18.7592 5.85681 18.9238 5.95486 18.8735 6.02424C18.7469 6.19574 18.7883 5.92914 18.7698 5.91883C18.6757 5.84783 18.6488 6.02282 18.5485 5.90221C18.449 5.78125 18.5957 5.85545 18.5982 5.85033C18.7161 5.59266 18.3326 5.5265 18.3078 5.72324C18.3067 5.7337 18.4426 5.8908 18.413 5.92233C18.3946 5.94197 18.3444 5.89841 18.3139 5.93823C18.2837 5.97787 18.2913 6.10342 18.2406 6.13552C18.1897 6.16799 17.9774 6.10355 18.1617 6.24638C18.2442 6.31037 18.2599 6.17823 18.2645 6.17221C18.3061 6.11807 18.3352 6.20451 18.3627 6.15917C18.3711 6.14565 18.341 5.94833 18.3932 5.95839C18.4454 5.96855 18.6003 6.08346 18.6259 6.146C18.636 6.17056 18.5342 6.23256 18.5148 6.23794C18.4954 6.24352 18.4656 6.17311 18.4529 6.1823C18.3592 6.24905 18.348 6.40299 18.2948 6.50401C18.5178 6.44453 18.415 6.68461 18.2743 6.65992C18.2048 6.64736 18.1806 6.49607 18.0967 6.66925C18.1438 6.68752 18.2025 6.712 18.2536 6.7347C18.1916 6.76895 18.1312 6.89349 18.0288 6.86507C17.9613 6.84389 17.8868 6.53637 17.8218 6.66573C17.7834 6.74193 17.9824 6.89356 17.9992 7.01474C18.0019 7.03529 17.8804 7.20966 17.8596 7.20769C17.7843 7.20258 17.7398 7.02136 17.7289 7.01609C17.5638 6.93373 17.8058 7.32669 17.7405 7.36506C17.654 7.41546 17.597 7.21636 17.5036 7.17514C17.4491 7.15283 17.256 7.29441 17.2467 7.32633C17.2234 7.42443 17.4818 7.48118 17.4879 7.49606C17.6515 7.78202 17.3764 7.48259 17.3417 7.46468C17.2523 7.42148 17.3224 7.54537 17.2183 7.43594C17.1542 7.36825 17.2266 7.25284 17.1198 7.22804C17.0996 7.22319 17.1815 7.36367 17.0823 7.30401C17.0653 7.29404 16.8901 7.1459 16.965 7.34037C16.9926 7.41257 17.0327 7.34133 17.0546 7.3656C17.2311 7.56204 16.8541 7.42914 17.1269 7.67242C17.1214 7.52709 17.2991 7.45062 17.3714 7.68802C17.3774 7.70866 17.2315 7.85708 17.1821 7.85609C17.1542 7.85601 17.0196 7.75231 17.0109 7.74381C16.9362 7.67151 17.0057 7.66176 16.9394 7.59373C16.9331 7.58745 16.7968 7.52017 16.8029 7.56624C16.8055 7.58582 16.8833 7.67213 16.8818 7.70186C16.8716 7.89284 16.6086 7.4121 16.5411 7.35017C16.5043 7.31619 16.3898 7.31437 16.3708 7.33025C16.3516 7.34645 16.3918 7.39117 16.3854 7.42156C16.3788 7.45204 16.3027 7.43818 16.3166 7.48316C16.3473 7.59311 16.6831 8.0138 16.7276 8.04604C16.8596 8.14735 16.7223 7.9429 16.774 7.91881C16.8607 7.87837 16.9211 7.87518 16.9273 7.73471C16.9764 7.79999 17.0264 7.86559 17.0742 7.93287C16.752 8.04069 16.5583 8.51208 16.2143 8.5629C16.1262 8.5758 16.2133 8.4549 16.1652 8.43275C16.1525 8.42695 16.0991 8.43792 16.0967 8.38921C16.0886 8.24106 16.1981 8.36067 16.2178 8.36535C16.3031 8.38684 16.2959 8.27116 16.3403 8.24519C16.365 8.23065 16.4217 8.30668 16.4149 8.27012C16.3868 8.1249 16.1959 8.13385 16.1747 8.03272C16.1625 7.97852 16.2885 8.03375 16.2215 7.94099C16.1271 7.81106 16.0659 7.93996 16.1115 8.06461C16.1251 8.10236 16.2479 8.20934 16.2395 8.26489C16.236 8.28609 16.0451 8.2623 16.023 8.24595C15.9185 8.1731 15.8487 8.02928 15.8005 8.13638C15.7619 8.21493 15.915 8.35237 15.9284 8.37331C15.9791 8.45498 15.8727 8.43322 15.8991 8.46336C15.971 8.54756 16.1262 8.54946 16.0821 8.71413C16.0792 8.72407 15.9254 8.69923 15.9124 8.69268C15.846 8.66165 15.7955 8.58079 15.7475 8.55298C15.6993 8.52568 15.5418 8.53109 15.5372 8.54438C15.5118 8.61559 15.6339 8.61317 15.6445 8.69555C15.6469 8.71583 15.5784 8.6786 15.6197 8.764C15.6299 8.78666 15.7929 8.82895 15.7515 8.91577C15.7178 8.98572 15.507 9.01856 15.4319 9.06099C15.3549 8.9437 15.4886 8.96225 15.4104 8.84604C15.4041 8.83723 15.2996 8.72936 15.2707 8.73542C15.1651 8.75808 15.1055 8.93542 14.9764 8.90496C14.9451 8.89727 14.9457 8.73952 14.8829 8.83049C14.8778 8.83794 14.8645 8.96485 14.81 8.96891C14.7821 8.97118 14.7143 8.94674 14.6878 8.95752C14.6306 8.98376 14.284 9.17782 14.5138 9.2544C14.5982 9.28178 14.5787 9.10243 14.6963 9.13614C14.7441 9.15083 14.9273 9.39821 14.9671 9.21021C14.99 9.09679 14.8742 9.18561 14.841 9.09679C14.8947 9.0029 15.2143 8.85858 15.2845 8.90289C15.4775 9.0308 15.297 9.09736 15.2748 9.12916C15.1314 9.33657 15.1667 9.19546 14.9984 9.26825C14.9549 9.28767 14.8126 9.48269 14.7939 9.49359C14.7228 9.53883 14.7061 9.46035 14.6627 9.47516C14.6023 9.49532 14.6277 9.55584 14.5842 9.55973C14.58 9.56011 14.5652 9.49733 14.5341 9.51376C14.4897 9.53773 14.3228 9.58178 14.2911 9.55466C14.1391 9.42536 14.313 9.31722 14.3172 9.26151C14.3298 9.10982 14.2429 9.13424 14.2222 9.08389C14.1338 8.86805 14.1748 8.68447 13.9973 8.79182C13.8487 8.87894 14.1392 9.11344 14.1097 9.26288C14.091 9.36074 13.6729 9.23403 13.9206 9.54082C13.9352 9.55891 14.1704 9.5475 14.1798 9.70259C14.1242 9.76212 14.0666 9.65664 14.0068 9.66067C13.9217 9.66592 13.9648 9.77948 13.8539 9.76811C13.8411 9.76715 13.6991 9.57109 13.6651 9.64388C13.6445 9.68833 13.6405 9.8961 13.5033 9.83153C13.4995 9.82999 13.4199 9.76614 13.4171 9.76022C13.375 9.67674 13.4558 9.70244 13.4593 9.67251C13.478 9.49463 13.3249 9.51199 13.3222 9.65738C13.3201 9.76891 13.4897 9.80099 13.283 9.88705C13.0407 9.98412 13.2224 9.72211 13.2074 9.71232C12.9996 9.55863 13.2336 9.82927 13.075 9.95157C12.9359 10.0604 12.4585 10.0376 12.2523 10.0911C12.0204 9.92826 12.1329 10.0479 11.98 10.0808C11.6587 10.1454 11.7982 9.5826 11.7567 9.47389C11.673 9.23724 11.5984 9.58406 11.5705 9.62157C11.5102 9.70562 11.4596 9.62314 11.4155 9.70227C11.3705 9.78124 11.4209 10.0214 11.528 9.90709C11.5367 9.8979 11.5746 9.67576 11.6302 9.74572C11.6427 9.76268 11.7726 10.0141 11.7171 10.0758C11.6605 10.1381 11.5094 10.0754 11.4507 10.0758C11.3824 10.0766 11.3921 10.1611 11.3291 10.1428C11.2884 10.1309 11.274 10.029 11.2169 10.0397C11.1778 10.0469 11.173 10.1218 11.1437 10.1237C11.0693 10.1287 10.9724 10.1413 10.9064 10.119C10.7736 10.0747 10.6546 9.85341 10.5167 9.92783C10.4992 9.93721 10.5171 10.0545 10.4956 10.0714C10.4387 10.1153 10.3974 10.0065 10.3338 10.028C10.2703 10.0494 10.2667 10.1262 10.1656 10.0784C10.1544 10.073 10.1678 10.0022 10.1111 9.99676C10.0655 9.99246 9.99517 10.0738 9.90346 10.0651C9.7366 10.0495 9.46429 10.0295 9.34564 9.83052C9.30912 9.94144 9.34646 9.96045 9.24995 9.93633C9.12803 9.90585 8.94553 9.83492 8.80899 9.84084C8.80853 9.84076 8.80779 9.84222 8.80761 9.8414C8.80742 9.84216 8.80724 9.84293 8.80705 9.84369ZM16.3137 7.63181C16.2668 7.61956 16.1428 7.67442 16.1392 7.69046C16.1147 7.79738 16.2969 7.8597 16.316 7.87874C16.4142 7.981 16.3036 8.04225 16.4272 8.12516C16.4415 8.13473 16.5302 7.96761 16.5262 7.93681C16.5151 7.84654 16.3625 7.66529 16.3224 7.63587C16.2912 7.61319 16.3143 7.63204 16.314 7.63192C16.3139 7.63188 16.3138 7.63185 16.3137 7.63181ZM12.3305 9.15852C12.3195 9.14845 12.3116 9.08128 12.2966 9.08294C12.2475 9.08844 12.1271 9.18511 12.1846 9.29297C12.2032 9.32712 12.2808 9.23763 12.3146 9.30814C12.3361 9.35289 12.3445 9.52368 12.4501 9.43263C12.4772 9.40906 12.4563 9.10981 12.4411 9.08527C12.4038 9.02465 12.3656 9.16973 12.3358 9.16108C12.3137 9.15458 12.3413 9.1686 12.3303 9.15853C12.3304 9.15853 12.3304 9.15853 12.3305 9.15852ZM20.3129 2.58124C20.2467 2.63607 20.1256 2.68827 20.099 2.76235C20.0829 2.80705 20.1708 2.8649 20.1794 2.88293C20.2132 2.955 20.096 2.89155 20.0941 2.89275C20.0685 2.90935 20.1087 2.94929 20.1016 2.95684C20.0545 3.00562 19.9796 3.00509 19.9266 3.03133C19.916 3.03649 19.9701 3.07024 19.9585 3.07854C19.878 3.13588 19.9151 3.26744 19.8348 3.31284C19.7845 3.34131 19.6881 3.26225 19.6623 3.35634C19.6533 3.38871 19.6954 3.4971 19.6639 3.52914C19.6323 3.5612 19.5458 3.55426 19.5155 3.57399C19.4789 3.59782 19.4994 3.73081 19.4846 3.73752C19.4209 3.76845 19.3932 3.72526 19.3223 3.75582C19.2516 3.78614 19.3229 3.87079 19.3233 3.8821C19.3258 3.94602 19.2406 3.91073 19.2203 3.94699C19.1998 3.98305 19.2796 4.03286 19.2424 4.06031C19.2149 4.08067 19.0309 3.98534 19.0421 4.07461C19.0456 4.10206 19.2187 4.21589 19.2296 4.21442C19.3064 4.20518 19.1901 4.0652 19.2909 4.08599C19.3103 4.09017 19.5258 4.19913 19.5438 4.22482C19.6082 4.31698 19.5483 4.47157 19.4963 4.49881C19.4227 4.5377 19.3189 4.46411 19.2606 4.52094C19.0276 4.3924 18.8102 4.27474 18.6876 4.38847C18.6695 4.40467 18.6325 4.55575 18.5532 4.56744C18.5374 4.56987 18.4698 4.48007 18.4605 4.53115C18.4562 4.55521 18.5066 4.63048 18.4819 4.65618C18.4505 4.68877 18.3725 4.60767 18.3628 4.60534C18.2462 4.57598 18.3614 4.66795 18.3626 4.68737C18.3675 4.75904 18.1789 4.61219 18.2312 4.73945C18.2834 4.8665 18.6033 5.10866 18.42 5.19898C18.9433 5.41601 18.536 5.40157 18.549 5.42041C18.7821 5.7795 18.8415 5.43705 18.9619 5.37733C18.9976 5.35984 19.025 5.46425 19.0312 5.46464C19.1832 5.47396 18.9539 5.28438 18.8989 5.18436C18.8841 5.15726 18.8406 4.91705 18.8736 4.90749C18.9068 4.89797 18.968 4.99491 18.99 5.01097C19.0282 5.03879 19.0602 5.0129 19.0698 5.01975C19.1155 5.05251 19.042 5.11471 19.136 5.12499C19.1835 5.13021 19.2074 5.01505 19.2883 5.03791C19.3374 5.05185 19.4298 5.2097 19.5228 5.22785C19.5702 5.23233 19.7846 5.18273 19.7558 5.11205C19.7368 5.06766 19.6912 5.10489 19.6494 5.04819C19.6457 5.04319 19.6899 5.00635 19.6049 4.96508C19.5881 4.95718 19.3594 4.87208 19.3224 4.82971C19.3656 4.73257 19.631 4.90028 19.6993 4.88782C19.9892 4.83382 19.6577 4.73532 19.7422 4.63198C19.8357 4.51669 19.8377 4.63448 19.9457 4.67705C19.9742 4.6884 20.0575 4.62977 20.0519 4.60472C20.041 4.55516 19.931 4.51029 19.9126 4.45762C19.9083 4.44568 19.9652 4.42797 19.9609 4.41107C19.9485 4.36294 19.9438 4.23876 19.9312 4.21486C19.8772 4.11406 19.7706 4.1025 19.7381 4.00778C19.7301 3.98439 19.8053 3.95732 19.8035 3.90854C19.8007 3.77241 19.697 3.47506 19.974 3.74524C20.4323 3.88206 20.188 3.78871 20.2072 3.63656C20.2214 3.52445 20.3644 3.55384 20.4044 3.49567C20.4444 3.43746 20.3894 3.39066 20.3945 3.35549C20.3995 3.32028 20.4469 3.38707 20.4509 3.38033C20.5058 3.28532 20.5734 3.30644 20.6418 3.20605C20.6529 3.19013 20.7229 2.94977 20.693 2.89668C20.6248 2.778 20.3117 2.60841 20.5503 2.60886C20.5782 2.6088 20.8364 2.81855 20.8028 2.67397C20.7689 2.52918 20.6894 2.49792 20.5573 2.39964C20.5053 2.36111 20.5743 2.28932 20.4734 2.29437C20.4216 2.29757 20.3495 2.52145 20.3152 2.57806C20.315 2.57833 20.3132 2.58084 20.3128 2.58096C20.3128 2.58105 20.3129 2.58115 20.3129 2.58124ZM21.3496 0.673554C21.2447 0.844205 21.1534 0.813344 21.2098 1.009C21.2285 1.07414 21.3173 1.08895 21.3447 1.15029C21.3607 1.18615 21.2807 1.13914 21.3042 1.19676C21.3278 1.25439 21.3613 1.33283 21.2091 1.19615C21.1597 1.15177 21.2563 1.14107 21.1652 1.10236C21.1477 1.16287 21.0782 1.18606 21.0456 1.23479C21.0311 1.25679 21.1112 1.28463 21.0978 1.30815C21.0712 1.35495 20.9828 1.39423 20.9514 1.44361C20.9311 1.47546 20.9884 1.53702 20.978 1.55399C20.9396 1.61555 20.8774 1.52555 20.8163 1.57882C20.791 1.60119 20.7594 1.84046 20.7484 1.85543C20.6683 1.96589 20.5585 2.05425 20.5036 2.13513C20.4235 2.25321 20.5876 2.27836 20.6159 2.29371C20.7585 2.37107 20.7407 2.48317 20.8903 2.50793C20.9262 2.51424 21.077 2.33649 21.0779 2.29647C21.0816 2.14803 20.8389 1.84251 21.1838 2.05573C21.2329 2.03137 21.1284 1.94855 21.1256 1.91397C21.1187 1.82852 21.3418 1.8063 21.3525 1.78879C21.3958 1.71885 21.1974 1.59037 21.1962 1.54927C21.1916 1.39088 21.3622 1.5094 21.3803 1.51294C21.5724 1.55767 21.3814 1.31996 21.3976 1.27584C21.4291 1.18966 21.5107 1.27052 21.5766 1.19604C21.5875 1.18385 21.687 0.962864 21.6998 0.947698C21.8267 0.799652 21.6757 0.779065 21.6319 0.735045C21.3323 0.434719 21.8477 0.371982 21.976 0.244148C22.0136 0.207205 22.0057 0.0708609 21.9127 0.0127519C21.9127 0.012751 21.9127 0.01275 21.9127 0.0127491C21.905 0.00792567 21.8967 0.00364198 21.8878 0C21.7323 0.197509 21.4544 0.503436 21.3498 0.673294C21.3497 0.673381 21.3497 0.673468 21.3496 0.673554Z" fill="#AD0200"/>
</svg>
